<?xml version="1.0" encoding="utf-8"?>
<!-- Generator: Adobe Illustrator 19.0.0, SVG Export Plug-In . SVG Version: 6.00 Build 0)  -->
<svg version="1.1" xmlns="http://www.w3.org/2000/svg" xmlns:xlink="http://www.w3.org/1999/xlink" x="0px" y="0px"
	 viewBox="0 0 1600 4439" style="enable-background:new 0 0 1600 4439;" width="1600" height="4439" xml:space="preserve">
<style type="text/css">
	.st0{fill-rule:evenodd;clip-rule:evenodd;fill:#586A7D;}
	.st1{fill-rule:evenodd;clip-rule:evenodd;fill:#697A8D;}
	.st2{fill-rule:evenodd;clip-rule:evenodd;fill:#96A2AF;}
	.st3{fill-rule:evenodd;clip-rule:evenodd;fill:#536579;}
	.st4{fill-rule:evenodd;clip-rule:evenodd;fill:#6C7E91;}
	.st5{fill-rule:evenodd;clip-rule:evenodd;fill:#F9FFDB;}
	.st6{fill-rule:evenodd;clip-rule:evenodd;fill:#FFA498;}
	.st7{fill-rule:evenodd;clip-rule:evenodd;fill:#70CCFF;}
	.st8{fill-rule:evenodd;clip-rule:evenodd;fill:#CBD6D9;}
	.st9{fill-rule:evenodd;clip-rule:evenodd;fill:#EFF2F3;}
	.st10{opacity:0.1;fill-rule:evenodd;clip-rule:evenodd;}
	.st11{fill-rule:evenodd;clip-rule:evenodd;fill:#EDEFEF;}
	.st12{fill-rule:evenodd;clip-rule:evenodd;fill:#A0A9B8;}
	.st13{fill-rule:evenodd;clip-rule:evenodd;fill:#838FA1;}
	.st14{fill-rule:evenodd;clip-rule:evenodd;fill:#EFF1F1;}
	.st15{fill-rule:evenodd;clip-rule:evenodd;fill:#CDD4D9;}
	.st16{fill:#A0A9B8;}
	.st17{opacity:0.35;fill-rule:evenodd;clip-rule:evenodd;fill:#CBD6D9;}
	.st18{fill-rule:evenodd;clip-rule:evenodd;fill:#8A95A7;}
	.st19{fill-rule:evenodd;clip-rule:evenodd;fill:#747E8D;}
	.st20{opacity:0.1;fill-rule:evenodd;clip-rule:evenodd;fill:#FFFFFF;}
	.st21{fill-rule:evenodd;clip-rule:evenodd;fill:#D5DBDE;}
	.st22{fill-rule:evenodd;clip-rule:evenodd;fill:#63738C;}
	.st23{fill-rule:evenodd;clip-rule:evenodd;fill:#485261;}
	.st24{fill:#485261;}
	.st25{fill-rule:evenodd;clip-rule:evenodd;fill:#808B9B;}
</style>
<g id="window_2_1_">
	<path class="st0" d="M233,436h1134c3.3,0,6,2.7,6,6v446H227V442C227,438.7,229.7,436,233,436z"/>
	<path class="st1" d="M1293,473h80v415h-80V473z"/>
	<path class="st2" d="M1303,613h1v1h-1V613z"/>
	<path class="st2" d="M1303,611h10v1h-10V611z"/>
	<path class="st2" d="M1303,609h15v1h-15V609z"/>
	<path class="st2" d="M1303,607h2v1h-2V607z"/>
	<path class="st2" d="M1303,605h4v1h-4V605z"/>
	<path class="st2" d="M1303,603h8v1h-8V603z"/>
	<path class="st2" d="M1303,581h51v1h-51V581z"/>
	<path class="st2" d="M1303,601h30v1h-30V601z"/>
	<path class="st2" d="M1303,599h52v1h-52V599z"/>
	<path class="st2" d="M1303,597h10v1h-10V597z"/>
	<path class="st2" d="M1303,595h46v1h-46V595z"/>
	<path class="st2" d="M1303,593h20v1h-20V593z"/>
	<path class="st2" d="M1303,591h26v1h-26V591z"/>
	<path class="st2" d="M1303,589h3v1h-3V589z"/>
	<path class="st2" d="M1303,587h16v1h-16V587z"/>
	<path class="st2" d="M1303,585h60v1h-60V585z"/>
	<path class="st2" d="M1303,585h39v1h-39V585z"/>
	<path class="st2" d="M1303,583h39v1h-39V583z"/>
	<path class="st2" d="M1303,579h59v1h-59V579z"/>
	<path class="st2" d="M1303,557h51v1h-51V557z"/>
	<path class="st2" d="M1303,577h30v1h-30V577z"/>
	<path class="st2" d="M1303,575h52v1h-52V575z"/>
	<path class="st2" d="M1303,573h10v1h-10V573z"/>
	<path class="st2" d="M1303,571h46v1h-46V571z"/>
	<path class="st2" d="M1303,569h20v1h-20V569z"/>
	<path class="st2" d="M1303,567h26v1h-26V567z"/>
	<path class="st2" d="M1303,565h3v1h-3V565z"/>
	<path class="st2" d="M1303,563h16v1h-16V563z"/>
	<path class="st2" d="M1303,561h60v1h-60V561z"/>
	<path class="st2" d="M1303,561h39v1h-39V561z"/>
	<path class="st2" d="M1303,559h39v1h-39V559z"/>
	<path class="st2" d="M1303,555h59v1h-59V555z"/>
	<path class="st2" d="M1303,533h51v1h-51V533z"/>
	<path class="st2" d="M1303,553h30v1h-30V553z"/>
	<path class="st2" d="M1303,551h52v1h-52V551z"/>
	<path class="st2" d="M1303,549h10v1h-10V549z"/>
	<path class="st2" d="M1303,547h46v1h-46V547z"/>
	<path class="st2" d="M1303,545h20v1h-20V545z"/>
	<path class="st2" d="M1303,543h26v1h-26V543z"/>
	<path class="st2" d="M1303,541h3v1h-3V541z"/>
	<path class="st2" d="M1303,539h16v1h-16V539z"/>
	<path class="st2" d="M1303,537h60v1h-60V537z"/>
	<path class="st2" d="M1303,537h39v1h-39V537z"/>
	<path class="st2" d="M1303,531h59v1h-59V531z"/>
	<path class="st2" d="M1303,509h51v1h-51V509z"/>
	<path class="st2" d="M1303,529h30v1h-30V529z"/>
	<path class="st2" d="M1303,527h52v1h-52V527z"/>
	<path class="st2" d="M1303,525h10v1h-10V525z"/>
	<path class="st2" d="M1303,523h46v1h-46V523z"/>
	<path class="st2" d="M1303,521h20v1h-20V521z"/>
	<path class="st2" d="M1303,519h26v1h-26V519z"/>
	<path class="st2" d="M1303,517h3v1h-3V517z"/>
	<path class="st2" d="M1303,515h16v1h-16V515z"/>
	<path class="st2" d="M1303,513h60v1h-60V513z"/>
	<path class="st2" d="M1303,513h39v1h-39V513z"/>
	<path class="st2" d="M1303,511h39v1h-39V511z"/>
	<path class="st2" d="M1303,507h59v1h-59V507z"/>
	<path class="st2" d="M1303,485h51v1h-51V485z"/>
	<path class="st2" d="M1303,505h30v1h-30V505z"/>
	<path class="st2" d="M1303,503h52v1h-52V503z"/>
	<path class="st2" d="M1303,501h10v1h-10V501z"/>
	<path class="st2" d="M1303,499h46v1h-46V499z"/>
	<path class="st2" d="M1303,497h20v1h-20V497z"/>
	<path class="st2" d="M1303,495h26v1h-26V495z"/>
	<path class="st2" d="M1303,493h3v1h-3V493z"/>
	<path class="st2" d="M1303,491h16v1h-16V491z"/>
	<path class="st2" d="M1303,489h60v1h-60V489z"/>
	<path class="st2" d="M1303,489h39v1h-39V489z"/>
	<path class="st2" d="M1303,487h39v1h-39V487z"/>
	<path class="st2" d="M1303,483h59v1h-59V483z"/>
	<path class="st1" d="M227,473h30v415h-30V473z"/>
	<path class="st3" d="M237,883h10v5h-10V883z"/>
	<path class="st3" d="M237,863h10v10h-10V863z"/>
	<path class="st3" d="M237,843h10v10h-10V843z"/>
	<path class="st3" d="M237,823h10v10h-10V823z"/>
	<path class="st3" d="M237,803h10v10h-10V803z"/>
	<path class="st3" d="M237,783h10v10h-10V783z"/>
	<path class="st3" d="M237,763h10v10h-10V763z"/>
	<path class="st3" d="M237,743h10v10h-10V743z"/>
	<path class="st3" d="M237,723h10v10h-10V723z"/>
	<path class="st3" d="M237,703h10v10h-10V703z"/>
	<path class="st3" d="M237,683h10v10h-10V683z"/>
	<path class="st3" d="M237,663h10v10h-10V663z"/>
	<path class="st3" d="M237,643h10v10h-10V643z"/>
	<path class="st3" d="M237,623h10v10h-10V623z"/>
	<path class="st3" d="M237,603h10v10h-10V603z"/>
	<path class="st3" d="M237,583h10v10h-10V583z"/>
	<path class="st3" d="M237,563h10v10h-10V563z"/>
	<path class="st3" d="M237,543h10v10h-10V543z"/>
	<path class="st3" d="M237,523h10v10h-10V523z"/>
	<path class="st3" d="M237,503h10v10h-10V503z"/>
	<path class="st3" d="M237,483h10v10h-10V483z"/>
	<path class="st4" d="M291,743h35v10h-35V743z"/>
	<path class="st5" d="M268,743h13v10h-13V743z"/>
	<path class="st6" d="M308,723h35v10h-35V723z"/>
	<path class="st7" d="M268,723h30v10h-30V723z"/>
	<path class="st4" d="M268,703h10v10h-10V703z"/>
	<path class="st4" d="M268,683h10v10h-10V683z"/>
	<path class="st7" d="M288,663h59v10h-59V663z"/>
	<path class="st5" d="M268,663h10v10h-10V663z"/>
	<path class="st4" d="M323,643h45v10h-45V643z"/>
	<path class="st6" d="M268,643h45v10h-45V643z"/>
	<path class="st5" d="M298,623h45v10h-45V623z"/>
	<path class="st7" d="M268,623h20v10h-20V623z"/>
	<path class="st4" d="M313,603h20v10h-20V603z"/>
	<path class="st4" d="M268,603h35v10h-35V603z"/>
	<path class="st4" d="M268,583h10v10h-10V583z"/>
	<path class="st4" d="M268,563h10v10h-10V563z"/>
	<path class="st5" d="M268,543h45v10h-45V543z"/>
	<path class="st4" d="M303,523h30v10h-30V523z"/>
	<path class="st6" d="M268,523h25v10h-25V523z"/>
	<path class="st5" d="M268,503h75v10h-75V503z"/>
	<path class="st4" d="M327,483h18v10h-18V483z"/>
	<path class="st4" d="M268,483h49v10h-49V483z"/>
	<path class="st8" d="M232,436h1136c2.8,0,5,2.2,5,5v32H227v-32C227,438.2,229.2,436,232,436z"/>
	<path class="st9" d="M291,449c3.3,0,6,2.7,6,6c0,3.3-2.7,6-6,6c-3.3,0-6-2.7-6-6C285,451.7,287.7,449,291,449z"/>
	<path class="st9" d="M272,449c3.3,0,6,2.7,6,6c0,3.3-2.7,6-6,6c-3.3,0-6-2.7-6-6C266,451.7,268.7,449,272,449z"/>
	<path class="st9" d="M253,449c3.3,0,6,2.7,6,6c0,3.3-2.7,6-6,6c-3.3,0-6-2.7-6-6C247,451.7,249.7,449,253,449z"/>
	<path class="st2" d="M1303,535h39v1h-39V535z"/>
</g>
<g id="window_1">
	<path class="st10" d="M357,397h903c3.3,0,6,2.6,6,5.9V888H351V402.9C351,399.6,353.7,397,357,397z"/>
	<path class="st11" d="M348,386h903c3.3,0,6,2.7,6,6v496H342V392C342,388.7,344.7,386,348,386z"/>
	<path class="st12" d="M972,478h185v80H972V478z"/>
	<path class="st13" d="M972,488h185v30H972V488z"/>
	<path class="st14" d="M992,498h42v10h-42V498z"/>
	<path class="st15" d="M992,528h69v10h-69V528z"/>
	<path class="st16" d="M1135.5,473l7.5,5h-15L1135.5,473z"/>
	<path class="st17" d="M442,568h190v190H442V568z"/>
	<path class="st8" d="M1008,628h107v10h-107V628z"/>
	<path class="st8" d="M932,628h66v10h-66V628z"/>
	<path class="st8" d="M1097,608h40v10h-40V608z"/>
	<path class="st8" d="M980,608h107v10H980V608z"/>
	<path class="st8" d="M932,608h38v10h-38V608z"/>
	<path class="st8" d="M1040,588h80v10h-80V588z"/>
	<path class="st8" d="M932,588h98v10h-98V588z"/>
	<path class="st8" d="M1087,568h60v10h-60V568z"/>
	<path class="st8" d="M1018,568h59v10h-59V568z"/>
	<path class="st8" d="M932,568h76v10h-76V568z"/>
	<path class="st8" d="M738,538h55v10h-55V538z"/>
	<path class="st8" d="M670,538h58v10h-58V538z"/>
	<path class="st8" d="M615,538h45v10h-45V538z"/>
	<path class="st8" d="M486,538h119v10H486V538z"/>
	<path class="st8" d="M442,538h34v10h-34V538z"/>
	<path class="st8" d="M908,518h64v10h-64V518z"/>
	<path class="st8" d="M853,518h45v10h-45V518z"/>
	<path class="st8" d="M772,518h71v10h-71V518z"/>
	<path class="st8" d="M693,518h69v10h-69V518z"/>
	<path class="st8" d="M645,518h38v10h-38V518z"/>
	<path class="st8" d="M572,518h63v10h-63V518z"/>
	<path class="st8" d="M442,518h120v10H442V518z"/>
	<path class="st8" d="M874,498h63v10h-63V498z"/>
	<path class="st8" d="M829,498h35v10h-35V498z"/>
	<path class="st8" d="M735,498h84v10h-84V498z"/>
	<path class="st8" d="M594,498h131v10H594V498z"/>
	<path class="st8" d="M544,498h40v10h-40V498z"/>
	<path class="st8" d="M514,498h20v10h-20V498z"/>
	<path class="st8" d="M442,498h62v10h-62V498z"/>
	<path class="st18" d="M986,448h60v10h-60V448z"/>
	<path class="st18" d="M1056,448h50v10h-50V448z"/>
	<path class="st19" d="M1116,448h41v10h-41V448z"/>
	<path class="st19" d="M442,443h100v20H442V443z"/>
	<path class="st8" d="M348,386h903c3.3,0,6,2.7,6,6v31H342v-31C342,388.7,344.7,386,348,386z"/>
	<path class="st18" d="M1203,399h12v12h-12V399z"/>
	<path class="st18" d="M1225,399h12v12h-12V399z"/>
	<path class="st9" d="M454,399h739v12H454V399z"/>
	<path class="st9" d="M406,399c3.3,0,6,2.7,6,6c0,3.3-2.7,6-6,6c-3.3,0-6-2.7-6-6C400,401.7,402.7,399,406,399z"/>
	<path class="st9" d="M387,399c3.3,0,6,2.7,6,6c0,3.3-2.7,6-6,6c-3.3,0-6-2.7-6-6C381,401.7,383.7,399,387,399z"/>
	<path class="st9" d="M368,399c3.3,0,6,2.7,6,6c0,3.3-2.7,6-6,6c-3.3,0-6-2.7-6-6C362,401.7,364.7,399,368,399z"/>
</g>
<g id="modal">
	<path class="st20" d="M659,522h290c2.8,0,5,2.2,5,5v190c0,2.8-2.2,5-5,5H659c-2.8,0-5-2.2-5-5V527C654,524.2,656.2,522,659,522z"/>
	<path class="st12" d="M655,518h290c2.8,0,5,2.2,5,5v190c0,2.8-2.2,5-5,5H655c-2.8,0-5-2.2-5-5V523C650,520.2,652.2,518,655,518z"/>
	<path class="st21" d="M853,568h56v10h-56V568z"/>
	<path class="st21" d="M787,568h56v10h-56V568z"/>
	<path class="st21" d="M744,568h33v10h-33V568z"/>
	<path class="st21" d="M670,568h64v10h-64V568z"/>
	<path class="st21" d="M832,538h39v10h-39V538z"/>
	<path class="st21" d="M728,538h94v10h-94V538z"/>
	<path class="st22" d="M702,660h196v25H702V660z"/>
	<path class="st23" d="M735,618h125v30H735V618z"/>
	<path class="st24" d="M800.5,653l-7.5-5h15L800.5,653z"/>
	<path class="st25" d="M820,628h20v10h-20V628z"/>
	<path class="st25" d="M755,628h55v10h-55V628z"/>
	<path class="st21" d="M811,588h56v10h-56V588z"/>
	<path class="st21" d="M722,588h79v10h-79V588z"/>
	<path class="st21" d="M670,588h42v10h-42V588z"/>
</g>
</svg>
